<svg xmlns="http://www.w3.org/2000/svg" xmlns:v="https://svgstorm.com"
viewBox = "0 0 360 360"
width="360"
height="360">
<g fill="None" fill-opacity="0.0" stroke="#F5F5F5" stroke-opacity="1.00" stroke-width="0.3"><path d="
M 0.00 360.00 
L 360.00 360.00
L 360.00 0.00
L 0.00 0.00
L 0.00 360.00
M 76.00 272.00 
C 72.46 268.97 68.76 265.71 66.00 262.00
C 28.95 212.17 51.30 146.94 88.00 104.00
C 91.66 99.71 95.76 95.62 100.00 92.00
C 124.49 71.07 162.31 54.85 194.01 64.99 C 225.70 75.13 246.30 95.30 266.00 121.00
C 276.65 113.26 283.84 115.06 295.03 107.02 C 306.21 98.99 320.03 111.99 308.75 120.75 C 297.47 129.51 294.48 133.18 282.92 138.92 C 271.36 144.66 269.95 154.80 264.70 164.70 C 259.45 174.60 252.75 180.28 244.75 187.75 C 236.76 195.22 229.58 200.97 222.75 209.75 C 215.91 218.52 209.08 227.32 208.00 239.00 C 206.92 250.69 207.94 265.97 200.75 275.75 C 193.55 285.52 187.29 289.93 176.32 294.32 C 165.35 298.72 149.99 299.90 137.99 298.01 C 125.99 296.12 113.91 293.70 103.31 288.69 C 92.70 283.68 84.88 279.61 76.00 272.00 Z"/>
</g>
<g fill="None" fill-opacity="0.0" stroke="#060707" stroke-opacity="1.00" stroke-width="0.3"><path d="
M 100.00 92.00 
C 96.08 95.92 91.87 100.13 88.00 104.00
C 51.30 146.94 28.95 212.17 66.00 262.00
C 68.89 265.32 72.90 268.90 76.00 272.00
C 84.88 279.61 92.70 283.68 103.31 288.69 C 113.91 293.70 125.99 296.12 137.99 298.01 C 149.99 299.90 165.35 298.72 176.32 294.32 C 187.29 289.93 193.55 285.52 200.75 275.75 C 207.94 265.97 206.92 250.69 208.00 239.00 C 209.08 227.32 215.91 218.52 222.75 209.75 C 229.58 200.97 236.76 195.22 244.75 187.75 C 252.75 180.28 259.45 174.60 264.70 164.70 C 269.95 154.80 271.36 144.66 282.92 138.92 C 294.48 133.18 297.47 129.51 308.75 120.75 C 320.03 111.99 306.21 98.99 295.03 107.02 C 283.84 115.06 276.65 113.26 266.00 121.00
C 246.30 95.30 225.70 75.13 194.01 64.99 C 162.31 54.85 124.49 71.07 100.00 92.00
M 79.00 267.00 
C 76.44 264.81 74.15 262.51 72.00 260.00
C 32.70 214.01 58.47 150.20 91.00 109.00
C 94.47 104.60 98.80 100.59 103.00 97.00
C 126.27 77.11 162.10 60.85 192.22 70.78 C 222.34 80.71 243.02 98.28 260.00 124.00
C 253.29 127.15 247.45 130.49 240.77 133.77 C 234.09 137.05 227.06 140.21 220.32 143.32 C 213.58 146.43 207.11 150.15 200.31 153.31 C 193.50 156.46 187.28 160.26 180.31 163.31 C 173.33 166.35 165.73 167.10 159.75 172.75 C 153.77 178.40 149.11 180.19 145.70 188.70 C 142.28 197.20 140.48 201.98 140.00 213.00 C 139.52 224.02 145.02 223.57 149.77 213.77 C 154.52 203.97 165.89 212.57 173.00 211.00 C 180.11 209.43 187.74 206.62 192.75 200.75 C 197.76 194.88 203.69 191.75 209.75 187.75 C 215.80 183.74 221.74 179.79 227.75 175.75 C 233.76 171.70 239.73 167.82 245.75 163.75 C 251.76 159.68 257.76 155.70 264.00 152.00
C 260.19 169.09 244.38 178.32 232.75 190.75 C 221.13 203.18 207.39 214.44 203.68 231.68 C 199.97 248.91 202.98 273.08 184.92 283.92 C 166.86 294.75 146.14 294.51 126.93 290.07 C 107.71 285.64 94.03 279.55 79.00 267.00
M 183.00 168.00 
C 190.24 165.35 197.03 161.34 204.08 158.08 C 211.12 154.81 218.25 150.51 225.23 147.23 C 232.21 143.95 239.39 140.49 246.08 137.08 C 252.76 133.66 261.43 130.23 267.69 126.69 C 273.96 123.16 283.05 120.01 288.23 116.23 C 293.40 112.45 309.78 106.95 306.69 114.70 C 303.61 122.44 294.37 123.17 288.92 127.92 C 283.48 132.68 275.79 136.77 269.77 140.77 C 263.75 144.77 257.45 149.63 251.25 153.25 C 245.05 156.87 238.39 163.06 232.25 166.25 C 226.11 169.44 219.32 176.05 213.75 178.75 C 208.19 181.45 199.22 191.47 194.25 188.74 C 189.29 186.01 186.50 172.30 183.00 168.00
M 178.00 171.00 
C 181.04 179.52 187.43 186.77 191.00 195.00
C 184.52 200.73 177.27 206.32 168.00 205.00
C 162.31 193.16 158.03 169.96 178.00 171.00
M 158.00 182.00 
C 157.16 189.82 159.38 196.80 161.00 204.00
C 155.24 203.03 150.42 205.95 146.00 209.00
C 147.23 199.31 149.74 188.32 158.00 182.00 Z"/>
</g>
<g fill="None" fill-opacity="0.0" stroke="#E7EAEE" stroke-opacity="1.00" stroke-width="0.3"><path d="
M 103.00 97.00 
C 99.14 100.86 94.64 105.06 91.00 109.00
C 58.47 150.20 32.70 214.01 72.00 260.00
C 74.26 262.26 76.79 264.79 79.00 267.00
C 94.03 279.55 107.71 285.64 126.93 290.07 C 146.14 294.51 166.86 294.75 184.92 283.92 C 202.98 273.08 199.97 248.91 203.68 231.68 C 207.39 214.44 221.13 203.18 232.75 190.75 C 244.38 178.32 260.19 169.09 264.00 152.00
C 257.76 155.70 251.76 159.68 245.75 163.75 C 239.73 167.82 233.76 171.70 227.75 175.75 C 221.74 179.79 215.80 183.74 209.75 187.75 C 203.69 191.75 197.76 194.88 192.75 200.75 C 187.74 206.62 180.11 209.43 173.00 211.00 C 165.89 212.57 154.52 203.97 149.77 213.77 C 145.02 223.57 139.52 224.02 140.00 213.00 C 140.48 201.98 142.28 197.20 145.70 188.70 C 149.11 180.19 153.77 178.40 159.75 172.75 C 165.73 167.10 173.33 166.35 180.31 163.31 C 187.28 160.26 193.50 156.46 200.31 153.31 C 207.11 150.15 213.58 146.43 220.32 143.32 C 227.06 140.21 234.09 137.05 240.77 133.77 C 247.45 130.49 253.29 127.15 260.00 124.00
C 243.02 98.28 222.34 80.71 192.22 70.78 C 162.10 60.85 126.27 77.11 103.00 97.00
M 158.00 83.00 
C 183.76 87.18 176.88 129.55 150.33 124.67 C 123.78 119.79 130.78 78.58 158.00 83.00
M 212.00 96.00 
C 237.17 101.21 229.31 142.91 202.93 137.07 C 176.54 131.24 184.37 90.28 212.00 96.00
M 111.00 129.00 
C 136.62 134.31 129.78 175.61 103.00 171.00 C 76.22 166.39 84.18 123.45 111.00 129.00
M 91.00 187.00 
C 117.60 191.25 109.55 234.52 83.00 229.00 C 56.45 223.48 65.11 182.86 91.00 187.00
M 132.00 230.00 
C 157.29 235.24 147.83 278.16 121.98 271.02 C 96.12 263.89 104.78 224.36 132.00 230.00 Z"/>
</g>
<g fill="None" fill-opacity="0.0" stroke="#070A10" stroke-opacity="1.00" stroke-width="0.3"><path d="
M 158.00 83.00 
C 130.78 78.58 123.78 119.79 150.33 124.67 C 176.88 129.55 183.76 87.18 158.00 83.00
M 159.00 89.00 
C 177.27 93.25 167.97 125.84 149.33 118.67 C 130.69 111.50 139.50 84.46 159.00 89.00 Z"/>
</g>
<g fill="None" fill-opacity="0.0" stroke="#4BA0D5" stroke-opacity="1.00" stroke-width="0.3"><path d="
M 159.00 89.00 
C 139.50 84.46 130.69 111.50 149.33 118.67 C 167.97 125.84 177.27 93.25 159.00 89.00 Z"/>
</g>
<g fill="None" fill-opacity="0.0" stroke="#7F7F7F" stroke-opacity="1.00" stroke-width="0.3"><path d="
M 88.00 104.00 
C 91.87 100.13 96.08 95.92 100.00 92.00
C 95.76 95.62 91.66 99.71 88.00 104.00 Z"/>
</g>
<g fill="None" fill-opacity="0.0" stroke="#0F0707" stroke-opacity="1.00" stroke-width="0.3"><path d="
M 212.00 96.00 
C 184.37 90.28 176.54 131.24 202.93 137.07 C 229.31 142.91 237.17 101.21 212.00 96.00
M 222.00 120.00 
C 221.16 127.54 215.57 131.88 208.00 132.00
C 194.94 132.21 184.47 115.12 196.25 105.25 C 208.03 95.38 223.61 105.58 222.00 120.00 Z"/>
</g>
<g fill="None" fill-opacity="0.0" stroke="#727474" stroke-opacity="1.00" stroke-width="0.3"><path d="
M 91.00 109.00 
C 94.64 105.06 99.14 100.86 103.00 97.00
C 98.80 100.59 94.47 104.60 91.00 109.00 Z"/>
</g>
<g fill="None" fill-opacity="0.0" stroke="#C33E37" stroke-opacity="1.00" stroke-width="0.3"><path d="
M 208.00 132.00 
C 213.41 131.32 220.72 125.48 222.00 120.00
C 223.61 105.58 208.03 95.38 196.25 105.25 C 184.47 115.12 194.94 132.21 208.00 132.00 Z"/>
</g>
<g fill="None" fill-opacity="0.0" stroke="#F2F2F2" stroke-opacity="1.00" stroke-width="0.3"><path d="
M 183.00 168.00 
C 186.50 172.30 189.29 186.01 194.25 188.74 C 199.22 191.47 208.19 181.45 213.75 178.75 C 219.32 176.05 226.11 169.44 232.25 166.25 C 238.39 163.06 245.05 156.87 251.25 153.25 C 257.45 149.63 263.75 144.77 269.77 140.77 C 275.79 136.77 283.48 132.68 288.92 127.92 C 294.37 123.17 303.61 122.44 306.69 114.70 C 309.78 106.95 293.40 112.45 288.23 116.23 C 283.05 120.01 273.96 123.16 267.69 126.69 C 261.43 130.23 252.76 133.66 246.08 137.08 C 239.39 140.49 232.21 143.95 225.23 147.23 C 218.25 150.51 211.12 154.81 204.08 158.08 C 197.03 161.34 190.24 165.35 183.00 168.00 Z"/>
</g>
<g fill="None" fill-opacity="0.0" stroke="#661E1A" stroke-opacity="1.00" stroke-width="0.3"><path d="
M 208.00 132.00 
C 215.57 131.88 221.16 127.54 222.00 120.00
C 220.72 125.48 213.41 131.32 208.00 132.00 Z"/>
</g>
<g fill="None" fill-opacity="0.0" stroke="#0C0A08" stroke-opacity="1.00" stroke-width="0.3"><path d="
M 111.00 129.00 
C 84.18 123.45 76.22 166.39 103.00 171.00 C 129.78 175.61 136.62 134.31 111.00 129.00
M 111.00 135.00 
C 129.64 139.34 121.37 171.07 102.33 164.67 C 83.29 158.27 92.00 130.58 111.00 135.00 Z"/>
</g>
<g fill="None" fill-opacity="0.0" stroke="#E7D1A3" stroke-opacity="1.00" stroke-width="0.3"><path d="
M 111.00 135.00 
C 92.00 130.58 83.29 158.27 102.33 164.67 C 121.37 171.07 129.64 139.34 111.00 135.00
M 96.00 160.00 
C 91.54 152.29 93.01 139.55 103.08 137.08 C 113.15 134.61 121.58 143.98 119.07 154.08 C 116.55 164.19 103.30 165.35 96.00 160.00 Z"/>
</g>
<g fill="None" fill-opacity="0.0" stroke="#FCCC92" stroke-opacity="1.00" stroke-width="0.3"><path d="
M 96.00 160.00 
C 103.30 165.35 116.55 164.19 119.07 154.08 C 121.58 143.98 113.15 134.61 103.08 137.08 C 93.01 139.55 91.54 152.29 96.00 160.00 Z"/>
</g>
<g fill="None" fill-opacity="0.0" stroke="#F0F0F0" stroke-opacity="1.00" stroke-width="0.3"><path d="
M 178.00 171.00 
C 158.03 169.96 162.31 193.16 168.00 205.00
C 177.27 206.32 184.52 200.73 191.00 195.00
C 187.43 186.77 181.04 179.52 178.00 171.00 Z"/>
</g>
<g fill="None" fill-opacity="0.0" stroke="#EAEAEA" stroke-opacity="1.00" stroke-width="0.3"><path d="
M 158.00 182.00 
C 149.74 188.32 147.23 199.31 146.00 209.00
C 150.42 205.95 155.24 203.03 161.00 204.00
C 159.38 196.80 157.16 189.82 158.00 182.00 Z"/>
</g>
<g fill="None" fill-opacity="0.0" stroke="#0A0806" stroke-opacity="1.00" stroke-width="0.3"><path d="
M 91.00 187.00 
C 65.11 182.86 56.45 223.48 83.00 229.00 C 109.55 234.52 117.60 191.25 91.00 187.00
M 92.00 193.00 
C 109.98 197.45 103.05 228.54 83.93 223.07 C 64.80 217.60 71.19 187.84 92.00 193.00 Z"/>
</g>
<g fill="None" fill-opacity="0.0" stroke="#F3BF21" stroke-opacity="1.00" stroke-width="0.3"><path d="
M 92.00 193.00 
C 71.19 187.84 64.80 217.60 83.93 223.07 C 103.05 228.54 109.98 197.45 92.00 193.00 Z"/>
</g>
<g fill="None" fill-opacity="0.0" stroke="#0C0707" stroke-opacity="1.00" stroke-width="0.3"><path d="
M 132.00 230.00 
C 104.78 224.36 96.12 263.89 121.98 271.02 C 147.83 278.16 157.29 235.24 132.00 230.00
M 129.00 235.00 
C 148.40 237.65 143.68 269.37 124.00 266.00 C 104.32 262.63 109.87 232.39 129.00 235.00 Z"/>
</g>
<g fill="None" fill-opacity="0.0" stroke="#D69D64" stroke-opacity="1.00" stroke-width="0.3"><path d="
M 129.00 235.00 
C 109.87 232.39 104.32 262.63 124.00 266.00 C 143.68 269.37 148.40 237.65 129.00 235.00 Z"/>
</g>
<g fill="None" fill-opacity="0.0" stroke="#78797B" stroke-opacity="1.00" stroke-width="0.3"><path d="
M 79.00 267.00 
C 76.79 264.79 74.26 262.26 72.00 260.00
C 74.15 262.51 76.44 264.81 79.00 267.00 Z"/>
</g>
<g fill="None" fill-opacity="0.0" stroke="#767676" stroke-opacity="1.00" stroke-width="0.3"><path d="
M 76.00 272.00 
C 72.90 268.90 68.89 265.32 66.00 262.00
C 68.76 265.71 72.46 268.97 76.00 272.00 Z"/>
</g>
<g fill="#F5F5F5" fill-opacity="1.00" stroke="None">
<path d="
M 0.00 360.00 
L 360.00 360.00
L 360.00 0.00
L 0.00 0.00
L 0.00 360.00
M 76.00 272.00 
C 72.46 268.97 68.76 265.71 66.00 262.00
C 28.95 212.17 51.30 146.94 88.00 104.00
C 91.66 99.71 95.76 95.62 100.00 92.00
C 124.49 71.07 162.31 54.85 194.01 64.99 C 225.70 75.13 246.30 95.30 266.00 121.00
C 276.65 113.26 283.84 115.06 295.03 107.02 C 306.21 98.99 320.03 111.99 308.75 120.75 C 297.47 129.51 294.48 133.18 282.92 138.92 C 271.36 144.66 269.95 154.80 264.70 164.70 C 259.45 174.60 252.75 180.28 244.75 187.75 C 236.76 195.22 229.58 200.97 222.75 209.75 C 215.91 218.52 209.08 227.32 208.00 239.00 C 206.92 250.69 207.94 265.97 200.75 275.75 C 193.55 285.52 187.29 289.93 176.32 294.32 C 165.35 298.72 149.99 299.90 137.99 298.01 C 125.99 296.12 113.91 293.70 103.31 288.69 C 92.70 283.68 84.88 279.61 76.00 272.00 Z"/>
</g>
<g fill="#060707" fill-opacity="1.00" stroke="None">
<path d="
M 100.00 92.00 
C 96.08 95.92 91.87 100.13 88.00 104.00
C 51.30 146.94 28.95 212.17 66.00 262.00
C 68.89 265.32 72.90 268.90 76.00 272.00
C 84.88 279.61 92.70 283.68 103.31 288.69 C 113.91 293.70 125.99 296.12 137.99 298.01 C 149.99 299.90 165.35 298.72 176.32 294.32 C 187.29 289.93 193.55 285.52 200.75 275.75 C 207.94 265.97 206.92 250.69 208.00 239.00 C 209.08 227.32 215.91 218.52 222.75 209.75 C 229.58 200.97 236.76 195.22 244.75 187.75 C 252.75 180.28 259.45 174.60 264.70 164.70 C 269.95 154.80 271.36 144.66 282.92 138.92 C 294.48 133.18 297.47 129.51 308.75 120.75 C 320.03 111.99 306.21 98.99 295.03 107.02 C 283.84 115.06 276.65 113.26 266.00 121.00
C 246.30 95.30 225.70 75.13 194.01 64.99 C 162.31 54.85 124.49 71.07 100.00 92.00
M 79.00 267.00 
C 76.44 264.81 74.15 262.51 72.00 260.00
C 32.70 214.01 58.47 150.20 91.00 109.00
C 94.47 104.60 98.80 100.59 103.00 97.00
C 126.27 77.11 162.10 60.85 192.22 70.78 C 222.34 80.71 243.02 98.28 260.00 124.00
C 253.29 127.15 247.45 130.49 240.77 133.77 C 234.09 137.05 227.06 140.21 220.32 143.32 C 213.58 146.43 207.11 150.15 200.31 153.31 C 193.50 156.46 187.28 160.26 180.31 163.31 C 173.33 166.35 165.73 167.10 159.75 172.75 C 153.77 178.40 149.11 180.19 145.70 188.70 C 142.28 197.20 140.48 201.98 140.00 213.00 C 139.52 224.02 145.02 223.57 149.77 213.77 C 154.52 203.97 165.89 212.57 173.00 211.00 C 180.11 209.43 187.74 206.62 192.75 200.75 C 197.76 194.88 203.69 191.75 209.75 187.75 C 215.80 183.74 221.74 179.79 227.75 175.75 C 233.76 171.70 239.73 167.82 245.75 163.75 C 251.76 159.68 257.76 155.70 264.00 152.00
C 260.19 169.09 244.38 178.32 232.75 190.75 C 221.13 203.18 207.39 214.44 203.68 231.68 C 199.97 248.91 202.98 273.08 184.92 283.92 C 166.86 294.75 146.14 294.51 126.93 290.07 C 107.71 285.64 94.03 279.55 79.00 267.00
M 183.00 168.00 
C 190.24 165.35 197.03 161.34 204.08 158.08 C 211.12 154.81 218.25 150.51 225.23 147.23 C 232.21 143.95 239.39 140.49 246.08 137.08 C 252.76 133.66 261.43 130.23 267.69 126.69 C 273.96 123.16 283.05 120.01 288.23 116.23 C 293.40 112.45 309.78 106.95 306.69 114.70 C 303.61 122.44 294.37 123.17 288.92 127.92 C 283.48 132.68 275.79 136.77 269.77 140.77 C 263.75 144.77 257.45 149.63 251.25 153.25 C 245.05 156.87 238.39 163.06 232.25 166.25 C 226.11 169.44 219.32 176.05 213.75 178.75 C 208.19 181.45 199.22 191.47 194.25 188.74 C 189.29 186.01 186.50 172.30 183.00 168.00
M 178.00 171.00 
C 181.04 179.52 187.43 186.77 191.00 195.00
C 184.52 200.73 177.27 206.32 168.00 205.00
C 162.31 193.16 158.03 169.96 178.00 171.00
M 158.00 182.00 
C 157.16 189.82 159.38 196.80 161.00 204.00
C 155.24 203.03 150.42 205.95 146.00 209.00
C 147.23 199.31 149.74 188.32 158.00 182.00 Z"/>
</g>
<g fill="#E7EAEE" fill-opacity="1.00" stroke="None">
<path d="
M 103.00 97.00 
C 99.14 100.86 94.64 105.06 91.00 109.00
C 58.47 150.20 32.70 214.01 72.00 260.00
C 74.26 262.26 76.79 264.79 79.00 267.00
C 94.03 279.55 107.71 285.64 126.93 290.07 C 146.14 294.51 166.86 294.75 184.92 283.92 C 202.98 273.08 199.97 248.91 203.68 231.68 C 207.39 214.44 221.13 203.18 232.75 190.75 C 244.38 178.32 260.19 169.09 264.00 152.00
C 257.76 155.70 251.76 159.68 245.75 163.75 C 239.73 167.82 233.76 171.70 227.75 175.75 C 221.74 179.79 215.80 183.74 209.75 187.75 C 203.69 191.75 197.76 194.88 192.75 200.75 C 187.74 206.62 180.11 209.43 173.00 211.00 C 165.89 212.57 154.52 203.97 149.77 213.77 C 145.02 223.57 139.52 224.02 140.00 213.00 C 140.48 201.98 142.28 197.20 145.70 188.70 C 149.11 180.19 153.77 178.40 159.75 172.75 C 165.73 167.10 173.33 166.35 180.31 163.31 C 187.28 160.26 193.50 156.46 200.31 153.31 C 207.11 150.15 213.58 146.43 220.32 143.32 C 227.06 140.21 234.09 137.05 240.77 133.77 C 247.45 130.49 253.29 127.15 260.00 124.00
C 243.02 98.28 222.34 80.71 192.22 70.78 C 162.10 60.85 126.27 77.11 103.00 97.00
M 158.00 83.00 
C 183.76 87.18 176.88 129.55 150.33 124.67 C 123.78 119.79 130.78 78.58 158.00 83.00
M 212.00 96.00 
C 237.17 101.21 229.31 142.91 202.93 137.07 C 176.54 131.24 184.37 90.28 212.00 96.00
M 111.00 129.00 
C 136.62 134.31 129.78 175.61 103.00 171.00 C 76.22 166.39 84.18 123.45 111.00 129.00
M 91.00 187.00 
C 117.60 191.25 109.55 234.52 83.00 229.00 C 56.45 223.48 65.11 182.86 91.00 187.00
M 132.00 230.00 
C 157.29 235.24 147.83 278.16 121.98 271.02 C 96.12 263.89 104.78 224.36 132.00 230.00 Z"/>
</g>
<g fill="#070A10" fill-opacity="1.00" stroke="None">
<path d="
M 158.00 83.00 
C 130.78 78.58 123.78 119.79 150.33 124.67 C 176.88 129.55 183.76 87.18 158.00 83.00
M 159.00 89.00 
C 177.27 93.25 167.97 125.84 149.33 118.67 C 130.69 111.50 139.50 84.46 159.00 89.00 Z"/>
</g>
<g fill="#4BA0D5" fill-opacity="1.00" stroke="None">
<path d="
M 159.00 89.00 
C 139.50 84.46 130.69 111.50 149.33 118.67 C 167.97 125.84 177.27 93.25 159.00 89.00 Z"/>
</g>
<g fill="#7F7F7F" fill-opacity="1.00" stroke="None">
<path d="
M 88.00 104.00 
C 91.87 100.13 96.08 95.92 100.00 92.00
C 95.76 95.62 91.66 99.71 88.00 104.00 Z"/>
</g>
<g fill="#0F0707" fill-opacity="1.00" stroke="None">
<path d="
M 212.00 96.00 
C 184.37 90.28 176.54 131.24 202.93 137.07 C 229.31 142.91 237.17 101.21 212.00 96.00
M 222.00 120.00 
C 221.16 127.54 215.57 131.88 208.00 132.00
C 194.94 132.21 184.47 115.12 196.25 105.25 C 208.03 95.38 223.61 105.58 222.00 120.00 Z"/>
</g>
<g fill="#727474" fill-opacity="1.00" stroke="None">
<path d="
M 91.00 109.00 
C 94.64 105.06 99.14 100.86 103.00 97.00
C 98.80 100.59 94.47 104.60 91.00 109.00 Z"/>
</g>
<g fill="#C33E37" fill-opacity="1.00" stroke="None">
<path d="
M 208.00 132.00 
C 213.41 131.32 220.72 125.48 222.00 120.00
C 223.61 105.58 208.03 95.38 196.25 105.25 C 184.47 115.12 194.94 132.21 208.00 132.00 Z"/>
</g>
<g fill="#F2F2F2" fill-opacity="1.00" stroke="None">
<path d="
M 183.00 168.00 
C 186.50 172.30 189.29 186.01 194.25 188.74 C 199.22 191.47 208.19 181.45 213.75 178.75 C 219.32 176.05 226.11 169.44 232.25 166.25 C 238.39 163.06 245.05 156.87 251.25 153.25 C 257.45 149.63 263.75 144.77 269.77 140.77 C 275.79 136.77 283.48 132.68 288.92 127.92 C 294.37 123.17 303.61 122.44 306.69 114.70 C 309.78 106.95 293.40 112.45 288.23 116.23 C 283.05 120.01 273.96 123.16 267.69 126.69 C 261.43 130.23 252.76 133.66 246.08 137.08 C 239.39 140.49 232.21 143.95 225.23 147.23 C 218.25 150.51 211.12 154.81 204.08 158.08 C 197.03 161.34 190.24 165.35 183.00 168.00 Z"/>
</g>
<g fill="#661E1A" fill-opacity="1.00" stroke="None">
<path d="
M 208.00 132.00 
C 215.57 131.88 221.16 127.54 222.00 120.00
C 220.72 125.48 213.41 131.32 208.00 132.00 Z"/>
</g>
<g fill="#0C0A08" fill-opacity="1.00" stroke="None">
<path d="
M 111.00 129.00 
C 84.18 123.45 76.22 166.39 103.00 171.00 C 129.78 175.61 136.62 134.31 111.00 129.00
M 111.00 135.00 
C 129.64 139.34 121.37 171.07 102.33 164.67 C 83.29 158.27 92.00 130.58 111.00 135.00 Z"/>
</g>
<g fill="#E7D1A3" fill-opacity="1.00" stroke="None">
<path d="
M 111.00 135.00 
C 92.00 130.58 83.29 158.27 102.33 164.67 C 121.37 171.07 129.64 139.34 111.00 135.00
M 96.00 160.00 
C 91.54 152.29 93.01 139.55 103.08 137.08 C 113.15 134.61 121.58 143.98 119.07 154.08 C 116.55 164.19 103.30 165.35 96.00 160.00 Z"/>
</g>
<g fill="#FCCC92" fill-opacity="1.00" stroke="None">
<path d="
M 96.00 160.00 
C 103.30 165.35 116.55 164.19 119.07 154.08 C 121.58 143.98 113.15 134.61 103.08 137.08 C 93.01 139.55 91.54 152.29 96.00 160.00 Z"/>
</g>
<g fill="#F0F0F0" fill-opacity="1.00" stroke="None">
<path d="
M 178.00 171.00 
C 158.03 169.96 162.31 193.16 168.00 205.00
C 177.27 206.32 184.52 200.73 191.00 195.00
C 187.43 186.77 181.04 179.52 178.00 171.00 Z"/>
</g>
<g fill="#EAEAEA" fill-opacity="1.00" stroke="None">
<path d="
M 158.00 182.00 
C 149.74 188.32 147.23 199.31 146.00 209.00
C 150.42 205.95 155.24 203.03 161.00 204.00
C 159.38 196.80 157.16 189.82 158.00 182.00 Z"/>
</g>
<g fill="#0A0806" fill-opacity="1.00" stroke="None">
<path d="
M 91.00 187.00 
C 65.11 182.86 56.45 223.48 83.00 229.00 C 109.55 234.52 117.60 191.25 91.00 187.00
M 92.00 193.00 
C 109.98 197.45 103.05 228.54 83.93 223.07 C 64.80 217.60 71.19 187.84 92.00 193.00 Z"/>
</g>
<g fill="#F3BF21" fill-opacity="1.00" stroke="None">
<path d="
M 92.00 193.00 
C 71.19 187.84 64.80 217.60 83.93 223.07 C 103.05 228.54 109.98 197.45 92.00 193.00 Z"/>
</g>
<g fill="#0C0707" fill-opacity="1.00" stroke="None">
<path d="
M 132.00 230.00 
C 104.78 224.36 96.12 263.89 121.98 271.02 C 147.83 278.16 157.29 235.24 132.00 230.00
M 129.00 235.00 
C 148.40 237.65 143.68 269.37 124.00 266.00 C 104.32 262.63 109.87 232.39 129.00 235.00 Z"/>
</g>
<g fill="#D69D64" fill-opacity="1.00" stroke="None">
<path d="
M 129.00 235.00 
C 109.87 232.39 104.32 262.63 124.00 266.00 C 143.68 269.37 148.40 237.65 129.00 235.00 Z"/>
</g>
<g fill="#78797B" fill-opacity="1.00" stroke="None">
<path d="
M 79.00 267.00 
C 76.79 264.79 74.26 262.26 72.00 260.00
C 74.15 262.51 76.44 264.81 79.00 267.00 Z"/>
</g>
<g fill="#767676" fill-opacity="1.00" stroke="None">
<path d="
M 76.00 272.00 
C 72.90 268.90 68.89 265.32 66.00 262.00
C 68.76 265.71 72.46 268.97 76.00 272.00 Z"/>
</g>
</svg>